<svg xmlns="http://www.w3.org/2000/svg" viewBox="0 0 189 108"><g id="Layer_2" data-name="Layer 2"><g id="Layer_1-2" data-name="Layer 1"><path d="M0,0V108H189V0ZM27,85.5a4.5,4.5,0,0,1-9,0v-9a4.5,4.5,0,0,1,9,0Zm18,0a4.5,4.5,0,0,1-9,0v-45a4.5,4.5,0,0,1,9,0ZM43.68,25.68A4.49,4.49,0,1,1,45,22.5,4.46,4.46,0,0,1,43.68,25.68ZM72,85.5a4.5,4.5,0,0,1-9,0v-45a4.5,4.5,0,0,1,9,0Zm16.68,3.18A4.49,4.49,0,1,1,90,85.5,4.46,4.46,0,0,1,88.68,88.68ZM108,85.5a4.5,4.5,0,0,1-9,0v-45a4.5,4.5,0,0,1,9,0Zm27,0a4.5,4.5,0,0,1-9,0v-45a4.5,4.5,0,0,1,9,0Zm16.68-41.82A4.49,4.49,0,1,1,153,40.5,4.46,4.46,0,0,1,151.68,43.68ZM171,85.5a4.5,4.5,0,0,1-9,0v-45a4.5,4.5,0,0,1,9,0Z"/></g></g></svg>