<svg xmlns="http://www.w3.org/2000/svg" viewBox="0 0 99.13 54.34"><g id="Layer_2" data-name="Layer 2"><g id="Layer_1-2" data-name="Layer 1"><path d="M27.17,4.52l-.17,36a13.5,13.5,0,1,1-27-.13l0-9a4.5,4.5,0,0,1,9,.05l0,9a4.5,4.5,0,1,0,9,0l.17-36a4.5,4.5,0,1,1,9,0Z"/><path d="M63.17,4.69l-.21,45a4.5,4.5,0,0,1-7.7,3.14,13.31,13.31,0,0,1-5.82,1.3A13.5,13.5,0,0,1,36,40.56l.17-36a4.5,4.5,0,1,1,9,.05L45,40.6a4.5,4.5,0,1,0,9,0l.17-36a4.5,4.5,0,0,1,9,0Z"/><path d="M99.13,13.86l-.17,36a4.5,4.5,0,1,1-9,0l.17-36a4.5,4.5,0,1,0-9-.05l-.17,36a4.5,4.5,0,1,1-9,0l.21-45A4.49,4.49,0,0,1,76.69.25a4.43,4.43,0,0,1,3.17,1.34A13.49,13.49,0,0,1,99.13,13.86Z"/></g></g></svg>